<?xml version="1.0" standalone="no"?>
<!DOCTYPE svg PUBLIC "-//W3C//DTD SVG 20010904//EN"
 "http://www.w3.org/TR/2001/REC-SVG-20010904/DTD/svg10.dtd">
<svg version="1.0" xmlns="http://www.w3.org/2000/svg"
 width="500.000000pt" height="500.000000pt" viewBox="0 0 500.000000 500.000000"
 preserveAspectRatio="xMidYMid meet">

<g transform="translate(0.000000,500.000000) scale(0.100000,-0.100000)"
fill="#000000" stroke="none">
<path d="M2443 3037 c-28 -16 -97 -109 -123 -167 -11 -25 -28 -61 -37 -80
l-18 -35 -112 -3 -113 -3 0 -44 c0 -25 4 -45 9 -45 13 0 8 -123 -4 -127 -6 -2
-18 42 -29 107 l-18 110 -43 0 -42 0 -11 -57 c-6 -32 -14 -77 -17 -100 -9 -60
-35 -59 -35 2 0 25 5 45 10 45 6 0 10 25 10 55 l0 55 -249 0 c-231 -1 -250 -2
-266 -20 -22 -25 -23 -125 0 -150 19 -21 19 -30 0 -30 -25 0 -19 -63 8 -88 26
-24 85 -30 105 -10 9 9 12 9 12 0 0 -9 107 -12 453 -12 l452 0 123 -103 c160
-133 203 -159 325 -199 161 -52 308 -41 339 26 21 47 -5 100 -93 190 -43 44
-79 82 -79 83 0 2 10 3 22 3 12 0 32 10 45 22 l23 21 23 -21 c33 -31 99 -30
120 1 l16 22 0 -22 1 -23 258 0 c321 0 302 -10 302 156 0 103 -2 112 -23 132
-19 18 -35 22 -95 22 -60 0 -72 -3 -72 -17 0 -15 -1 -15 -18 0 -14 13 -38 17
-90 17 l-72 0 0 -45 c0 -25 5 -45 10 -45 7 0 10 -24 8 -62 -2 -35 -7 -62 -13
-61 -10 2 -16 22 -35 141 l-12 72 -43 0 -42 0 -18 -110 c-11 -70 -22 -109 -29
-107 -14 5 -21 127 -6 127 5 0 10 20 10 45 l0 45 -152 -1 c-141 -1 -155 -2
-175 -22 -18 -16 -23 -32 -23 -68 l0 -47 -31 15 c-17 8 -33 23 -37 32 -3 9
-20 34 -39 57 -45 55 -41 110 8 126 6 2 13 24 16 50 5 41 3 48 -20 62 -15 11
-27 30 -31 51 -4 19 -10 35 -14 35 -4 0 -32 -4 -64 -9 -42 -7 -70 -6 -110 5
-65 17 -126 17 -155 1z m130 -11 c38 -7 38 -8 21 -27 -18 -20 -29 -19 -94 8
-31 13 -33 16 -15 23 11 4 27 6 35 5 8 -1 32 -5 53 -9z m-108 -15 c3 -5 28
-17 55 -26 27 -9 52 -20 55 -24 5 -9 -117 23 -137 35 -10 6 -10 4 0 -8 7 -9
32 -20 55 -23 23 -4 49 -12 57 -17 21 -13 -105 -1 -131 13 -21 11 -21 11 2 35
24 26 35 29 44 15z m311 -36 c8 -57 1 -97 -28 -157 -18 -35 -29 -47 -50 -50
l-27 -4 2 84 c2 77 0 85 -22 103 -13 11 -32 17 -42 14 -9 -3 -20 -2 -23 3 -10
17 40 41 95 45 30 2 62 4 71 5 13 2 18 -9 24 -43z m-420 -125 c9 -22 28 -49
41 -60 23 -18 27 -18 46 -5 12 8 43 15 69 15 l48 0 -6 -38 c-5 -31 -1 -42 19
-64 21 -23 23 -28 9 -31 -10 -3 -3 -5 14 -6 33 -1 44 -15 44 -54 0 -12 16 -42
35 -66 19 -24 35 -47 35 -52 0 -12 -30 -39 -44 -39 -7 0 -30 -11 -50 -25 -20
-14 -41 -25 -46 -25 -5 0 -26 14 -47 31 -21 17 -9 3 27 -31 169 -162 451 -268
573 -216 38 15 38 15 35 -7 -2 -16 -15 -26 -53 -39 -70 -24 -129 -22 -229 7
-139 40 -200 75 -349 200 l-138 115 -69 0 c-68 0 -70 1 -70 25 0 14 5 25 10
25 17 0 11 40 -11 69 -18 25 -19 33 -10 67 6 21 12 50 13 64 3 20 9 26 36 28
28 3 31 6 21 18 -9 12 -8 27 6 74 10 33 20 60 22 60 2 0 10 -18 19 -40z m-886
-134 c13 -15 20 -32 17 -40 -7 -17 -57 -22 -57 -6 0 6 -4 10 -10 10 -5 0 -10
-11 -10 -25 0 -18 5 -25 18 -25 48 0 79 -97 47 -146 -29 -45 -125 -24 -125 29
0 17 5 19 41 14 37 -5 40 -3 37 16 -2 12 -12 23 -23 25 -38 7 -55 33 -55 80 0
82 69 121 120 68z m107 8 c5 -15 7 -15 15 0 6 11 23 16 53 16 43 0 45 -1 45
-30 0 -16 -4 -30 -10 -30 -6 0 -10 -43 -10 -110 l0 -110 -30 0 c-17 0 -30 5
-31 13 0 10 -2 10 -6 0 -3 -8 -24 -13 -54 -13 -45 0 -49 2 -49 24 0 14 5 28
10 31 6 3 10 42 10 86 0 46 -4 79 -10 79 -5 0 -10 14 -10 30 0 28 3 30 35 30
24 0 38 -6 42 -16z m273 -24 c0 -35 -3 -40 -23 -40 -13 0 -28 5 -35 12 -9 9
-12 6 -12 -14 0 -22 5 -27 28 -30 21 -2 28 -9 30 -30 3 -25 0 -28 -27 -28 -26
0 -31 -4 -31 -24 0 -23 3 -24 35 -19 35 6 35 5 35 -31 l0 -36 -75 0 c-73 0
-75 1 -75 25 0 14 5 25 10 25 6 0 10 35 10 85 0 50 -4 85 -10 85 -11 0 -14 43
-3 53 3 4 37 7 75 7 l68 0 0 -40z m135 18 c2 -13 11 -63 20 -113 8 -49 19 -91
25 -93 5 -2 10 -15 10 -28 0 -23 -2 -24 -85 -24 -82 0 -85 1 -85 23 0 13 5 28
10 33 6 6 18 53 26 105 20 121 19 119 48 119 18 0 27 -6 31 -22z m253 -10 c2
-19 -1 -28 -11 -28 -8 0 -22 -17 -31 -38 -16 -36 -16 -40 3 -85 11 -26 25 -47
31 -47 5 0 10 -11 10 -25 0 -25 0 -25 -95 -25 -95 0 -95 0 -95 25 0 14 5 25
10 25 6 0 10 35 10 85 0 50 -4 85 -10 85 -11 0 -14 43 -3 54 4 4 46 5 93 4 85
-3 85 -3 88 -30z m515 18 c5 -12 -30 -36 -52 -36 -15 0 -22 33 -9 42 20 12 55
9 61 -6z m299 -3 c10 -9 18 -30 18 -50 0 -30 -3 -33 -29 -33 -23 0 -31 5 -34
23 -4 19 -4 18 -6 -5 -1 -26 2 -28 34 -28 l35 0 0 -67 c0 -77 -16 -103 -63
-103 -57 0 -67 21 -67 138 0 84 3 109 17 124 20 22 70 23 95 1z m206 -15 c2
-16 -1 -28 -7 -28 -7 0 -11 -33 -11 -92 0 -108 -11 -128 -71 -128 -56 0 -69
25 -66 129 1 45 -1 85 -5 87 -5 3 -8 19 -8 35 l0 30 83 -3 c81 -3 82 -3 85
-30z m144 -77 c9 -57 22 -109 28 -115 5 -5 10 -20 10 -33 0 -22 -3 -23 -85
-23 -79 0 -85 1 -85 20 0 12 6 31 14 43 7 12 19 58 25 102 17 114 18 117 49
113 25 -3 27 -7 44 -107z m186 86 c19 -20 22 -34 21 -93 -1 -38 2 -90 6 -116
l7 -48 -80 0 c-77 0 -80 1 -84 25 -3 14 -1 25 5 25 6 0 8 41 4 115 l-5 115 52
0 c42 0 57 -5 74 -23z m184 6 c15 -14 18 -32 18 -121 0 -131 -7 -142 -92 -142
-55 0 -58 1 -58 24 0 14 5 28 10 31 6 3 10 42 10 86 0 46 -4 79 -10 79 -5 0
-10 14 -10 30 0 30 0 30 57 30 38 0 62 -5 75 -17z m-974 -51 c4 -13 -55 -45
-68 -37 -17 11 -11 24 18 39 29 16 44 16 50 -2z m-1101 -109 c-2 -21 -4 -6 -4
32 0 39 2 55 4 38 2 -18 2 -50 0 -70z m1943 31 c0 -41 -4 -63 -10 -59 -5 3
-10 33 -10 66 0 33 4 59 10 59 6 0 10 -29 10 -66z m-2140 30 c0 -14 -3 -14
-15 -4 -8 7 -15 14 -15 16 0 2 7 4 15 4 8 0 15 -7 15 -16z m739 -67 c14 -14
14 -27 0 -27 -15 0 -41 70 -33 89 5 12 9 7 14 -17 4 -19 13 -39 19 -45z m608
58 c1 -5 -15 -18 -37 -27 -47 -20 -66 -5 -30 24 24 19 61 21 67 3z m30 -52 c2
-6 -12 -20 -31 -31 -33 -20 -36 -20 -45 -4 -8 14 -3 20 22 34 34 18 49 18 54
1z m33 -56 c0 -7 -13 -20 -29 -30 -25 -14 -30 -15 -41 -3 -9 12 -6 18 17 30
35 19 53 20 53 3z m112 -124 c64 -65 85 -92 79 -102 -15 -24 -87 -14 -165 24
-51 25 -87 35 -120 35 -25 0 -46 5 -46 10 0 6 25 21 55 35 31 13 55 30 55 39
0 13 36 46 50 46 3 0 45 -39 92 -87z m-305 -78 c0 -8 -4 -12 -9 -9 -5 3 -6 10
-3 15 9 13 12 11 12 -6z"/>
<path d="M2270 2705 c0 -8 5 -15 10 -15 6 0 10 -38 10 -95 0 -57 -4 -95 -10
-95 -5 0 -10 -7 -10 -15 0 -12 13 -15 60 -15 57 0 60 1 60 25 0 16 -6 25 -15
25 -8 0 -15 -4 -15 -10 0 -17 -39 -11 -48 8 -15 27 3 62 33 62 16 0 25 6 25
15 0 10 -10 15 -30 15 -27 0 -30 3 -30 30 0 17 -1 33 -2 38 -2 4 9 8 25 10 15
2 27 -1 27 -7 0 -6 7 -11 15 -11 9 0 15 9 15 25 0 24 -3 25 -60 25 -47 0 -60
-3 -60 -15z"/>
<path d="M2436 2705 c4 -8 9 -15 13 -15 4 0 6 -15 4 -32 -1 -18 -4 -68 -6
-110 -4 -75 -3 -78 18 -78 13 0 25 7 29 15 3 8 1 15 -4 15 -6 0 -10 18 -10 40
0 36 3 40 25 40 23 0 25 -4 25 -40 0 -22 -4 -40 -8 -40 -5 0 -9 -7 -9 -15 0
-10 10 -15 29 -15 18 0 28 5 28 15 0 8 -5 15 -11 15 -6 0 -10 33 -9 93 2 124
2 120 -16 113 -8 -3 -12 -2 -9 4 4 6 -14 10 -44 10 -41 0 -49 -3 -45 -15z m94
-55 c0 -36 -2 -40 -25 -40 -22 0 -25 4 -25 40 0 36 3 40 25 40 23 0 25 -4 25
-40z"/>
<path d="M2330 2656 c0 -14 5 -26 10 -26 6 0 10 9 10 19 0 11 -4 23 -10 26 -6
4 -10 -5 -10 -19z"/>
<path d="M2422 2586 l-2 -59 -22 19 -23 18 22 -24 c12 -13 25 -21 28 -18 3 3
4 32 2 64 l-3 59 -2 -59z"/>
<path d="M1382 2708 c-7 -7 -12 -33 -12 -59 0 -52 17 -74 52 -67 21 4 23 1 19
-39 -3 -38 -6 -43 -28 -43 -13 0 -21 4 -18 10 3 6 -1 10 -9 10 -9 0 -16 -6
-16 -13 0 -21 22 -37 50 -37 37 0 50 18 50 71 0 50 -11 65 -50 71 -20 2 -24 9
-25 36 -1 41 20 56 52 35 19 -13 23 -13 23 -1 0 22 -21 38 -50 38 -14 0 -31
-5 -38 -12z"/>
<path d="M1520 2704 c0 -8 3 -13 8 -10 4 2 9 -38 10 -89 2 -59 0 -95 -7 -100
-23 -13 -11 -35 19 -35 20 0 30 5 30 15 0 8 -4 15 -10 15 -6 0 -10 27 -10 62
0 34 3 58 6 55 10 -10 54 -120 54 -134 0 -7 7 -13 15 -13 12 0 15 19 15 110 0
67 4 110 10 110 6 0 10 7 10 15 0 10 -10 15 -30 15 -20 0 -30 -5 -30 -15 0 -8
5 -15 10 -15 6 0 10 -27 10 -61 0 -33 -3 -58 -8 -56 -4 3 -18 37 -32 76 -21
60 -28 71 -47 71 -14 0 -23 -6 -23 -16z"/>
<path d="M1601 2664 c0 -11 3 -14 6 -6 3 7 2 16 -1 19 -3 4 -6 -2 -5 -13z"/>
<path d="M1581 2524 c0 -11 3 -14 6 -6 3 7 2 16 -1 19 -3 4 -6 -2 -5 -13z"/>
<path d="M1720 2705 c0 -8 5 -15 10 -15 6 0 10 -38 10 -95 0 -57 -4 -95 -10
-95 -5 0 -10 -7 -10 -15 0 -12 13 -15 60 -15 57 0 60 1 60 25 0 16 -6 25 -15
25 -8 0 -15 -4 -15 -10 0 -5 -11 -10 -25 -10 -22 0 -25 4 -25 40 0 38 2 40 30
40 39 0 41 27 3 32 -25 3 -28 7 -28 43 0 34 3 40 20 37 11 -2 22 -7 25 -10 13
-17 30 -10 30 13 0 24 -3 25 -60 25 -47 0 -60 -3 -60 -15z"/>
<path d="M1937 2698 c-3 -13 -11 -61 -18 -108 -7 -47 -20 -92 -28 -100 -13
-13 -12 -15 13 -18 34 -4 58 14 37 27 -16 10 -6 51 14 51 15 0 29 -44 15 -48
-24 -8 -9 -32 20 -32 20 0 30 5 30 15 0 8 -4 15 -9 15 -4 0 -11 21 -15 48 -16
120 -29 172 -41 172 -7 0 -15 -10 -18 -22z m23 -103 c0 -14 -4 -25 -10 -25 -8
0 -8 23 -1 48 4 12 11 -3 11 -23z"/>
<path d="M2070 2706 c0 -8 4 -16 9 -18 5 -1 11 -49 13 -106 1 -56 2 -98 0 -92
-5 16 -22 12 -22 -5 0 -11 11 -15 38 -15 24 0 32 3 23 9 -11 7 -11 9 0 14 9 4
10 6 2 6 -7 1 -17 11 -24 22 -7 13 -7 19 -1 15 6 -3 13 3 17 14 9 29 19 25 38
-15 9 -19 12 -35 7 -35 -6 0 -10 -7 -10 -15 0 -10 10 -15 30 -15 20 0 30 5 30
15 0 8 -4 15 -8 15 -5 0 -19 25 -31 55 l-23 55 22 35 c12 19 19 39 15 45 -3 6
0 7 9 4 11 -4 16 0 16 10 0 11 -9 16 -31 16 -27 0 -31 -3 -26 -21 5 -20 -30
-99 -43 -99 -8 0 -4 70 5 98 7 20 4 22 -24 22 -20 0 -31 -5 -31 -14z"/>
<path d="M2130 2664 c0 -8 5 -12 10 -9 6 3 10 10 10 16 0 5 -4 9 -10 9 -5 0
-10 -7 -10 -16z"/>
<path d="M2130 2531 c0 -6 5 -13 10 -16 6 -3 10 1 10 9 0 9 -4 16 -10 16 -5 0
-10 -4 -10 -9z"/>
<path d="M2962 2708 c-16 -16 -16 -210 0 -226 7 -7 26 -12 43 -12 44 0 55 16
55 82 0 55 -1 58 -25 58 -26 0 -33 -18 -14 -37 6 -6 9 -23 7 -39 -2 -21 -8
-29 -23 -29 -18 0 -20 8 -23 93 -3 88 -2 92 19 92 13 0 23 -8 26 -20 3 -12 11
-19 17 -17 16 5 20 36 6 52 -15 18 -71 20 -88 3z"/>
<path d="M3002 2540 c0 -19 2 -27 5 -17 2 9 2 25 0 35 -3 9 -5 1 -5 -18z"/>
<path d="M3100 2705 c0 -8 5 -15 10 -15 6 0 10 -39 10 -98 0 -106 7 -122 50
-122 43 0 50 16 50 116 0 51 5 96 10 99 21 13 10 35 -18 35 l-27 0 3 -110 c4
-106 4 -110 -17 -110 -20 0 -21 5 -21 91 0 50 5 99 10 110 10 17 7 19 -25 19
-24 0 -35 -4 -35 -15z"/>
<path d="M3160 2600 c0 -47 4 -80 10 -80 6 0 10 33 10 80 0 47 -4 80 -10 80
-6 0 -10 -33 -10 -80z"/>
<path d="M3331 2673 c-5 -27 -13 -72 -17 -101 -4 -29 -12 -59 -18 -65 -23 -25
-16 -37 19 -37 36 0 36 0 29 35 -5 27 -3 35 9 35 18 0 30 -27 17 -35 -24 -15
-9 -35 25 -35 36 0 44 12 22 35 -7 7 -19 50 -26 96 -15 106 -19 119 -36 119
-8 0 -17 -19 -24 -47z"/>
<path d="M3470 2705 c0 -8 5 -15 10 -15 6 0 10 -36 10 -89 0 -50 -4 -93 -10
-96 -22 -13 -10 -35 19 -35 l30 0 -6 55 c-6 52 -5 55 17 55 22 0 23 -3 17 -55
l-6 -55 30 0 c29 0 41 22 19 35 -5 3 -10 48 -10 99 0 58 -4 96 -12 104 -18 18
-108 16 -108 -3z m90 -55 c0 -33 -3 -40 -20 -40 -17 0 -20 7 -20 40 0 33 3 40
20 40 17 0 20 -7 20 -40z"/>
<path d="M3530 2655 c0 -14 5 -25 10 -25 6 0 10 11 10 25 0 14 -4 25 -10 25
-5 0 -10 -11 -10 -25z"/>
<path d="M3530 2545 c0 -14 5 -25 10 -25 6 0 10 11 10 25 0 14 -4 25 -10 25
-5 0 -10 -11 -10 -25z"/>
<path d="M3650 2705 c0 -8 5 -15 10 -15 6 0 10 -38 10 -95 0 -57 -4 -95 -10
-95 -5 0 -10 -7 -10 -15 0 -19 100 -21 118 -3 16 16 16 210 0 226 -18 18 -118
16 -118 -3z m95 -110 c0 -83 -1 -90 -20 -90 -18 0 -20 8 -23 79 -3 91 1 109
25 104 16 -3 18 -15 18 -93z"/>
<path d="M3723 2600 c0 -47 2 -66 4 -42 2 23 2 61 0 85 -2 23 -4 4 -4 -43z"/>
<path d="M1346 2374 c-3 -9 -6 -23 -5 -32 0 -11 2 -12 6 -4 2 6 12 12 21 13
11 0 12 2 5 6 -18 7 -16 21 5 26 13 4 12 5 -4 6 -12 0 -25 -6 -28 -15z"/>
<path d="M1417 2383 c-4 -3 -7 -17 -7 -30 0 -15 6 -23 18 -23 24 0 42 19 41
45 0 16 -2 15 -11 -7 -13 -36 -41 -38 -32 -3 6 25 3 31 -9 18z"/>
<path d="M1496 2374 c-12 -30 -6 -44 17 -43 16 1 18 2 4 6 -12 3 -15 11 -11
29 7 27 0 33 -10 8z"/>
<path d="M1558 2360 c-4 -25 -1 -30 16 -30 16 0 18 2 7 9 -8 5 -12 18 -8 30 3
12 2 21 -3 21 -4 0 -10 -13 -12 -30z"/>
<path d="M1657 2383 c-4 -3 -7 -18 -7 -32 0 -14 4 -21 8 -15 4 6 15 13 25 17
23 8 22 37 -1 37 -10 0 -22 -3 -25 -7z m33 -7 c0 -3 -4 -8 -10 -11 -5 -3 -10
-1 -10 4 0 6 5 11 10 11 6 0 10 -2 10 -4z"/>
<path d="M1726 2374 c-3 -9 -6 -23 -6 -32 0 -15 2 -15 11 -2 8 11 12 12 16 3
7 -18 24 -16 17 1 -3 8 0 17 5 21 6 3 9 11 6 16 -10 15 -42 10 -49 -7z m34 -4
c0 -5 -4 -10 -10 -10 -5 0 -10 5 -10 10 0 6 5 10 10 10 6 0 10 -4 10 -10z"/>
<path d="M1802 2373 c-12 -24 -4 -43 17 -43 22 0 41 19 41 42 0 24 -46 24 -58
1z m48 -8 c0 -16 -27 -32 -37 -22 -3 4 -3 13 0 22 8 20 37 20 37 0z"/>
<path d="M1896 2384 c6 -3 9 -17 7 -32 l-3 -27 10 25 c6 13 16 28 23 32 7 4
-1 7 -18 7 -16 0 -25 -3 -19 -5z"/>
<path d="M1960 2376 c0 -8 -3 -21 -6 -30 -5 -12 0 -16 22 -15 17 1 22 3 12 6
-10 2 -18 9 -18 14 0 6 4 8 9 4 5 -3 12 -1 16 5 3 5 -2 10 -12 11 -13 1 -11 3
7 9 l25 8 -27 1 c-18 1 -28 -4 -28 -13z"/>
<path d="M2037 2383 c-4 -3 -7 -17 -7 -30 0 -18 5 -23 23 -22 16 1 18 2 5 6
-25 6 -22 32 5 43 21 8 21 9 1 9 -11 1 -24 -2 -27 -6z"/>
<path d="M2115 2360 c0 -16 3 -30 8 -30 4 0 7 9 7 20 0 10 8 24 18 29 15 9 14
10 -8 11 -21 0 -25 -5 -25 -30z"/>
<path d="M2176 2364 c-4 -14 -5 -29 -2 -31 3 -3 8 7 12 21 3 15 4 29 1 32 -2
3 -8 -7 -11 -22z"/>
<path d="M2220 2370 c-13 -24 -5 -40 19 -40 24 0 45 25 37 45 -8 22 -43 18
-56 -5z m50 -4 c0 -19 -17 -29 -37 -22 -12 5 -13 9 -3 21 16 19 40 19 40 1z"/>
<path d="M2306 2364 c-9 -34 1 -44 12 -13 l9 24 7 -23 c10 -30 23 -28 29 6 7
35 0 42 -11 11 l-9 -24 -7 23 c-10 30 -22 28 -30 -4z"/>
<path d="M3150 2376 c0 -8 -3 -21 -6 -30 -5 -12 0 -16 22 -15 17 1 22 3 12 6
-10 2 -18 9 -18 14 0 6 4 8 9 4 5 -3 12 -1 16 5 3 5 -2 10 -12 11 -13 1 -11 3
7 9 l25 8 -27 1 c-18 1 -28 -4 -28 -13z"/>
<path d="M3211 2375 c0 -11 3 -26 8 -34 7 -10 12 -8 25 10 9 13 16 28 16 34
-1 5 -7 -1 -15 -15 l-14 -25 -10 25 c-8 21 -10 22 -10 5z"/>
<path d="M3277 2383 c-4 -3 -7 -17 -7 -30 0 -17 5 -23 23 -22 20 0 21 1 2 8
-19 8 -19 8 0 19 15 8 16 12 5 12 -10 1 -9 4 5 10 20 8 20 9 -1 9 -11 1 -24
-2 -27 -6z"/>
<path d="M3337 2383 c-4 -3 -7 -18 -7 -32 0 -21 2 -23 10 -11 9 13 11 13 20 0
5 -8 10 -10 10 -5 0 6 3 20 6 33 5 17 2 22 -13 22 -11 0 -23 -3 -26 -7z m33
-13 c0 -5 -7 -10 -16 -10 -8 0 -12 5 -9 10 3 6 10 10 16 10 5 0 9 -4 9 -10z"/>
<path d="M3425 2375 c-3 -8 -7 -22 -10 -30 -3 -10 3 -15 18 -15 16 0 18 3 8 9
-8 5 -11 16 -6 30 3 11 4 21 0 21 -3 0 -8 -7 -10 -15z"/>
<path d="M3482 2362 l-21 -29 29 1 c31 1 38 17 21 44 -6 11 -13 7 -29 -16z"/>
<path d="M3546 2381 c-3 -5 1 -15 10 -22 14 -12 14 -14 -3 -20 -16 -7 -16 -8
-1 -8 23 -1 32 17 18 33 -8 11 -8 15 2 19 9 4 7 6 -4 6 -9 1 -19 -3 -22 -8z"/>
<path d="M3606 2384 c6 -3 9 -17 7 -32 l-3 -27 10 25 c6 13 16 28 23 32 7 4
-1 7 -18 7 -16 0 -25 -3 -19 -5z"/>
<path d="M3656 2364 c-4 -14 -5 -29 -2 -31 3 -3 8 7 12 21 3 15 4 29 1 32 -2
3 -8 -7 -11 -22z"/>
<path d="M3684 2365 c-4 -14 -4 -29 0 -32 3 -4 6 1 6 10 0 21 16 22 24 1 3 -8
10 -13 15 -10 12 8 20 56 10 56 -5 0 -9 -8 -9 -17 -1 -17 -1 -17 -14 0 -18 23
-24 22 -32 -8z"/>
<path d="M3760 2375 c-7 -8 -10 -22 -6 -30 6 -16 46 -21 46 -5 0 5 -6 7 -14 4
-8 -3 -16 -1 -19 3 -8 13 5 30 28 36 19 4 19 5 -1 6 -12 0 -27 -6 -34 -14z"/>
</g>
</svg>
